<svg width="59" height="59" viewBox="0 0 59 59" fill="none" xmlns="http://www.w3.org/2000/svg">
<g clip-path="url(#clip0_20_107)">
<path fill-rule="evenodd" clip-rule="evenodd" d="M51.625 0H7.375C5.41903 0 3.54317 0.777007 2.16009 2.16009C0.777007 3.54317 0 5.41903 0 7.375L0 51.625C0 53.581 0.777007 55.4568 2.16009 56.8399C3.54317 58.223 5.41903 59 7.375 59H51.625C53.581 59 55.4568 58.223 56.8399 56.8399C58.223 55.4568 59 53.581 59 51.625V7.375C59 5.41903 58.223 3.54317 56.8399 2.16009C55.4568 0.777007 53.581 0 51.625 0V0ZM3.6875 14.2227C3.6875 12.4785 5.3395 11.0625 7.375 11.0625H51.625C53.6605 11.0625 55.3125 12.4785 55.3125 14.2227V52.1523C55.3125 53.8965 53.6605 55.3125 51.625 55.3125H7.375C5.3395 55.3125 3.6875 53.8965 3.6875 52.1523V14.2227Z" fill="#6610F2"/>
<path fill-rule="evenodd" clip-rule="evenodd" d="M23.9688 25.8125C24.9467 25.8125 25.8847 25.424 26.5762 24.7325C27.2677 24.0409 27.6562 23.103 27.6562 22.125C27.6562 21.147 27.2677 20.2091 26.5762 19.5175C25.8847 18.826 24.9467 18.4375 23.9688 18.4375C22.9908 18.4375 22.0528 18.826 21.3613 19.5175C20.6698 20.2091 20.2812 21.147 20.2812 22.125C20.2812 23.103 20.6698 24.0409 21.3613 24.7325C22.0528 25.424 22.9908 25.8125 23.9688 25.8125ZM35.0312 25.8125C36.0092 25.8125 36.9472 25.424 37.6387 24.7325C38.3302 24.0409 38.7188 23.103 38.7188 22.125C38.7188 21.147 38.3302 20.2091 37.6387 19.5175C36.9472 18.826 36.0092 18.4375 35.0312 18.4375C34.0533 18.4375 33.1153 18.826 32.4238 19.5175C31.7323 20.2091 31.3438 21.147 31.3438 22.125C31.3438 23.103 31.7323 24.0409 32.4238 24.7325C33.1153 25.424 34.0533 25.8125 35.0312 25.8125ZM46.0938 25.8125C47.0717 25.8125 48.0097 25.424 48.7012 24.7325C49.3927 24.0409 49.7812 23.103 49.7812 22.125C49.7812 21.147 49.3927 20.2091 48.7012 19.5175C48.0097 18.826 47.0717 18.4375 46.0938 18.4375C45.1158 18.4375 44.1778 18.826 43.4863 19.5175C42.7948 20.2091 42.4062 21.147 42.4062 22.125C42.4062 23.103 42.7948 24.0409 43.4863 24.7325C44.1778 25.424 45.1158 25.8125 46.0938 25.8125ZM12.9062 36.875C13.8842 36.875 14.8222 36.4865 15.5137 35.795C16.2052 35.1034 16.5938 34.1655 16.5938 33.1875C16.5938 32.2095 16.2052 31.2716 15.5137 30.58C14.8222 29.8885 13.8842 29.5 12.9062 29.5C11.9283 29.5 10.9903 29.8885 10.2988 30.58C9.60725 31.2716 9.21875 32.2095 9.21875 33.1875C9.21875 34.1655 9.60725 35.1034 10.2988 35.795C10.9903 36.4865 11.9283 36.875 12.9062 36.875ZM23.9688 36.875C24.9467 36.875 25.8847 36.4865 26.5762 35.795C27.2677 35.1034 27.6562 34.1655 27.6562 33.1875C27.6562 32.2095 27.2677 31.2716 26.5762 30.58C25.8847 29.8885 24.9467 29.5 23.9688 29.5C22.9908 29.5 22.0528 29.8885 21.3613 30.58C20.6698 31.2716 20.2812 32.2095 20.2812 33.1875C20.2812 34.1655 20.6698 35.1034 21.3613 35.795C22.0528 36.4865 22.9908 36.875 23.9688 36.875ZM35.0312 36.875C36.0092 36.875 36.9472 36.4865 37.6387 35.795C38.3302 35.1034 38.7188 34.1655 38.7188 33.1875C38.7188 32.2095 38.3302 31.2716 37.6387 30.58C36.9472 29.8885 36.0092 29.5 35.0312 29.5C34.0533 29.5 33.1153 29.8885 32.4238 30.58C31.7323 31.2716 31.3438 32.2095 31.3438 33.1875C31.3438 34.1655 31.7323 35.1034 32.4238 35.795C33.1153 36.4865 34.0533 36.875 35.0312 36.875ZM46.0938 36.875C47.0717 36.875 48.0097 36.4865 48.7012 35.795C49.3927 35.1034 49.7812 34.1655 49.7812 33.1875C49.7812 32.2095 49.3927 31.2716 48.7012 30.58C48.0097 29.8885 47.0717 29.5 46.0938 29.5C45.1158 29.5 44.1778 29.8885 43.4863 30.58C42.7948 31.2716 42.4062 32.2095 42.4062 33.1875C42.4062 34.1655 42.7948 35.1034 43.4863 35.795C44.1778 36.4865 45.1158 36.875 46.0938 36.875ZM12.9062 47.9375C13.8842 47.9375 14.8222 47.549 15.5137 46.8575C16.2052 46.1659 16.5938 45.228 16.5938 44.25C16.5938 43.272 16.2052 42.3341 15.5137 41.6425C14.8222 40.951 13.8842 40.5625 12.9062 40.5625C11.9283 40.5625 10.9903 40.951 10.2988 41.6425C9.60725 42.3341 9.21875 43.272 9.21875 44.25C9.21875 45.228 9.60725 46.1659 10.2988 46.8575C10.9903 47.549 11.9283 47.9375 12.9062 47.9375ZM23.9688 47.9375C24.9467 47.9375 25.8847 47.549 26.5762 46.8575C27.2677 46.1659 27.6562 45.228 27.6562 44.25C27.6562 43.272 27.2677 42.3341 26.5762 41.6425C25.8847 40.951 24.9467 40.5625 23.9688 40.5625C22.9908 40.5625 22.0528 40.951 21.3613 41.6425C20.6698 42.3341 20.2812 43.272 20.2812 44.25C20.2812 45.228 20.6698 46.1659 21.3613 46.8575C22.0528 47.549 22.9908 47.9375 23.9688 47.9375ZM35.0312 47.9375C36.0092 47.9375 36.9472 47.549 37.6387 46.8575C38.3302 46.1659 38.7188 45.228 38.7188 44.25C38.7188 43.272 38.3302 42.3341 37.6387 41.6425C36.9472 40.951 36.0092 40.5625 35.0312 40.5625C34.0533 40.5625 33.1153 40.951 32.4238 41.6425C31.7323 42.3341 31.3438 43.272 31.3438 44.25C31.3438 45.228 31.7323 46.1659 32.4238 46.8575C33.1153 47.549 34.0533 47.9375 35.0312 47.9375Z" fill="#6610F2"/>
</g>
<defs>
<clipPath id="clip0_20_107">
<rect width="59" height="59" fill="white"/>
</clipPath>
</defs>
</svg>
