<svg width="59" height="59" viewBox="0 0 59 59" fill="none" xmlns="http://www.w3.org/2000/svg">
<path fill-rule="evenodd" clip-rule="evenodd" d="M14.75 5.53125H11.0625C9.10653 5.53125 7.23067 6.30826 5.84759 7.69134C4.46451 9.07442 3.6875 10.9503 3.6875 12.9062V51.625C3.6875 53.581 4.46451 55.4568 5.84759 56.8399C7.23067 58.223 9.10653 59 11.0625 59H47.9375C49.8935 59 51.7693 58.223 53.1524 56.8399C54.5355 55.4568 55.3125 53.581 55.3125 51.625V12.9062C55.3125 10.9503 54.5355 9.07442 53.1524 7.69134C51.7693 6.30826 49.8935 5.53125 47.9375 5.53125H44.25V9.21875H47.9375C48.9155 9.21875 49.8534 9.60725 50.545 10.2988C51.2365 10.9903 51.625 11.9283 51.625 12.9062V51.625C51.625 52.603 51.2365 53.5409 50.545 54.2325C49.8534 54.924 48.9155 55.3125 47.9375 55.3125H11.0625C10.0845 55.3125 9.14658 54.924 8.45504 54.2325C7.7635 53.5409 7.375 52.603 7.375 51.625V12.9062C7.375 11.9283 7.7635 10.9903 8.45504 10.2988C9.14658 9.60725 10.0845 9.21875 11.0625 9.21875H14.75V5.53125Z" fill="#6610F2"/>
<path fill-rule="evenodd" clip-rule="evenodd" d="M35.0312 3.6875H23.9688C23.4798 3.6875 23.0108 3.88175 22.665 4.22752C22.3193 4.57329 22.125 5.04226 22.125 5.53125V9.21875C22.125 9.70774 22.3193 10.1767 22.665 10.5225C23.0108 10.8682 23.4798 11.0625 23.9688 11.0625H35.0312C35.5202 11.0625 35.9892 10.8682 36.335 10.5225C36.6807 10.1767 36.875 9.70774 36.875 9.21875V5.53125C36.875 5.04226 36.6807 4.57329 36.335 4.22752C35.9892 3.88175 35.5202 3.6875 35.0312 3.6875ZM23.9688 0C22.5018 0 21.0949 0.582755 20.0576 1.62007C19.0203 2.65738 18.4375 4.06427 18.4375 5.53125V9.21875C18.4375 10.6857 19.0203 12.0926 20.0576 13.1299C21.0949 14.1672 22.5018 14.75 23.9688 14.75H35.0312C36.4982 14.75 37.9051 14.1672 38.9424 13.1299C39.9797 12.0926 40.5625 10.6857 40.5625 9.21875V5.53125C40.5625 4.06427 39.9797 2.65738 38.9424 1.62007C37.9051 0.582755 36.4982 0 35.0312 0L23.9688 0Z" fill="#6610F2"/>
<path d="M14.75 40.5625C14.75 39.5845 15.1385 38.6466 15.83 37.955C16.5216 37.2635 17.4595 36.875 18.4375 36.875C19.4155 36.875 20.3534 37.2635 21.045 37.955C21.7365 38.6466 22.125 39.5845 22.125 40.5625V44.25C22.125 45.228 21.7365 46.1659 21.045 46.8575C20.3534 47.549 19.4155 47.9375 18.4375 47.9375C17.4595 47.9375 16.5216 47.549 15.83 46.8575C15.1385 46.1659 14.75 45.228 14.75 44.25V40.5625ZM36.875 25.8125C36.875 24.8345 37.2635 23.8966 37.955 23.205C38.6466 22.5135 39.5845 22.125 40.5625 22.125C41.5405 22.125 42.4784 22.5135 43.17 23.205C43.8615 23.8966 44.25 24.8345 44.25 25.8125V44.25C44.25 45.228 43.8615 46.1659 43.17 46.8575C42.4784 47.549 41.5405 47.9375 40.5625 47.9375C39.5845 47.9375 38.6466 47.549 37.955 46.8575C37.2635 46.1659 36.875 45.228 36.875 44.25V25.8125ZM25.8125 33.1875C25.8125 32.2095 26.201 31.2716 26.8925 30.58C27.5841 29.8885 28.522 29.5 29.5 29.5C30.478 29.5 31.4159 29.8885 32.1075 30.58C32.799 31.2716 33.1875 32.2095 33.1875 33.1875V44.25C33.1875 45.228 32.799 46.1659 32.1075 46.8575C31.4159 47.549 30.478 47.9375 29.5 47.9375C28.522 47.9375 27.5841 47.549 26.8925 46.8575C26.201 46.1659 25.8125 45.228 25.8125 44.25V33.1875Z" fill="#6610F2"/>
</svg>
