<svg width="59" height="59" viewBox="0 0 59 59" fill="none" xmlns="http://www.w3.org/2000/svg">
<path d="M14.75 0H35.0312V3.6875H14.75C13.772 3.6875 12.8341 4.076 12.1425 4.76754C11.451 5.45908 11.0625 6.39701 11.0625 7.375V51.625C11.0625 52.603 11.451 53.5409 12.1425 54.2325C12.8341 54.924 13.772 55.3125 14.75 55.3125H44.25C45.228 55.3125 46.1659 54.924 46.8575 54.2325C47.549 53.5409 47.9375 52.603 47.9375 51.625V16.5938H51.625V51.625C51.625 53.581 50.848 55.4568 49.4649 56.8399C48.0818 58.223 46.206 59 44.25 59H14.75C12.794 59 10.9182 58.223 9.53509 56.8399C8.15201 55.4568 7.375 53.581 7.375 51.625V7.375C7.375 5.41903 8.15201 3.54317 9.53509 2.16009C10.9182 0.777007 12.794 0 14.75 0V0Z" fill="#6610F2"/>
<path d="M35.0312 11.0625V0L51.625 16.5938H40.5625C39.0955 16.5938 37.6886 16.011 36.6513 14.9737C35.614 13.9364 35.0313 12.5295 35.0312 11.0625Z" fill="#6610F2"/>
<path fill-rule="evenodd" clip-rule="evenodd" d="M25.8125 18.4375C26.3015 18.4375 26.7705 18.6318 27.1162 18.9775C27.462 19.3233 27.6562 19.7923 27.6562 20.2812V22.6191L29.6807 21.4502C29.8905 21.3272 30.1225 21.2469 30.3634 21.214C30.6043 21.1811 30.8493 21.1961 31.0844 21.2583C31.3195 21.3204 31.54 21.4284 31.7331 21.5761C31.9263 21.7238 32.0883 21.9083 32.2099 22.1189C32.3315 22.3294 32.4102 22.562 32.4415 22.8031C32.4729 23.0442 32.4562 23.2892 32.3925 23.5238C32.3288 23.7585 32.2193 23.9782 32.0703 24.1704C31.9213 24.3626 31.7358 24.5234 31.5244 24.6436L29.5 25.8125L31.5244 26.9814C31.7358 27.1016 31.9213 27.2624 32.0703 27.4546C32.2193 27.6468 32.3288 27.8665 32.3925 28.1012C32.4562 28.3358 32.4729 28.5808 32.4415 28.8219C32.4102 29.063 32.3315 29.2956 32.2099 29.5061C32.0883 29.7167 31.9263 29.9012 31.7331 30.0489C31.54 30.1966 31.3195 30.3046 31.0844 30.3667C30.8493 30.4289 30.6043 30.4439 30.3634 30.411C30.1225 30.3781 29.8905 30.2978 29.6807 30.1748L27.6562 29.0059V31.3438C27.6562 31.8327 27.462 32.3017 27.1162 32.6475C26.7705 32.9932 26.3015 33.1875 25.8125 33.1875C25.3235 33.1875 24.8545 32.9932 24.5088 32.6475C24.163 32.3017 23.9688 31.8327 23.9688 31.3438V29.0059L21.9443 30.1748C21.7345 30.2978 21.5025 30.3781 21.2616 30.411C21.0207 30.4439 20.7757 30.4289 20.5406 30.3667C20.3055 30.3046 20.085 30.1966 19.8919 30.0489C19.6987 29.9012 19.5367 29.7167 19.4151 29.5061C19.2935 29.2956 19.2148 29.063 19.1835 28.8219C19.1521 28.5808 19.1688 28.3358 19.2325 28.1012C19.2962 27.8665 19.4057 27.6468 19.5547 27.4546C19.7037 27.2624 19.8892 27.1016 20.1006 26.9814L22.125 25.8125L20.1006 24.6436C19.6805 24.3973 19.375 23.995 19.2505 23.5243C19.1261 23.0536 19.1929 22.5527 19.4363 22.1311C19.6797 21.7095 20.0801 21.4012 20.55 21.2737C21.0198 21.1461 21.5211 21.2095 21.9443 21.4502L23.9688 22.6191V20.2812C23.9688 19.7923 24.163 19.3233 24.5088 18.9775C24.8545 18.6318 25.3235 18.4375 25.8125 18.4375ZM18.4375 38.7188C18.4375 38.2298 18.6318 37.7608 18.9775 37.415C19.3233 37.0693 19.7923 36.875 20.2812 36.875H38.7188C39.2077 36.875 39.6767 37.0693 40.0225 37.415C40.3682 37.7608 40.5625 38.2298 40.5625 38.7188C40.5625 39.2077 40.3682 39.6767 40.0225 40.0225C39.6767 40.3682 39.2077 40.5625 38.7188 40.5625H20.2812C19.7923 40.5625 19.3233 40.3682 18.9775 40.0225C18.6318 39.6767 18.4375 39.2077 18.4375 38.7188ZM18.4375 46.0938C18.4375 45.6048 18.6318 45.1358 18.9775 44.79C19.3233 44.4443 19.7923 44.25 20.2812 44.25H38.7188C39.2077 44.25 39.6767 44.4443 40.0225 44.79C40.3682 45.1358 40.5625 45.6048 40.5625 46.0938C40.5625 46.5827 40.3682 47.0517 40.0225 47.3975C39.6767 47.7432 39.2077 47.9375 38.7188 47.9375H20.2812C19.7923 47.9375 19.3233 47.7432 18.9775 47.3975C18.6318 47.0517 18.4375 46.5827 18.4375 46.0938Z" fill="#6610F2"/>
</svg>
