<svg width="44" height="31" viewBox="0 0 44 31" fill="none" xmlns="http://www.w3.org/2000/svg">
<path d="M25.3516 21.4648C25.3516 16.1914 26.875 11.7578 29.9219 8.16406C32.9688 4.53125 37.4023 1.83594 43.2227 0.078125V4.64844C36.3477 6.83594 32.9102 10.1172 32.9102 14.4922C32.9102 15.3125 33.2031 16.0156 33.7891 16.6016C34.375 17.1484 35.4102 17.8125 36.8945 18.5938C39.5117 19.9609 40.8203 21.9141 40.8203 24.4531C40.8203 26.5625 40.1562 28.1641 38.8281 29.2578C37.5 30.3516 35.8203 30.8984 33.7891 30.8984C31.2891 30.8984 29.2578 30.0195 27.6953 28.2617C26.1328 26.4648 25.3516 24.1992 25.3516 21.4648ZM0.742188 21.4648C0.742188 16.1914 2.26562 11.7578 5.3125 8.16406C8.35938 4.53125 12.793 1.83594 18.6133 0.078125V4.64844C11.7383 6.83594 8.30078 10.1172 8.30078 14.4922C8.30078 15.3125 8.59375 16.0156 9.17969 16.6016C9.76562 17.1484 10.8008 17.8125 12.2852 18.5938C14.9023 19.9609 16.2109 21.9141 16.2109 24.4531C16.2109 26.5625 15.5469 28.1641 14.2188 29.2578C12.8906 30.3516 11.2109 30.8984 9.17969 30.8984C6.67969 30.8984 4.64844 30.0195 3.08594 28.2617C1.52344 26.4648 0.742188 24.1992 0.742188 21.4648Z" fill="#6610F2"/>
</svg>
